<?xml version="1.0" encoding="UTF-8" standalone="no"?>
<!DOCTYPE svg PUBLIC "-//W3C//DTD SVG 1.1//EN" "http://www.w3.org/Graphics/SVG/1.1/DTD/svg11.dtd">
<svg width="100%" height="100%" viewBox="0 0 261 48" version="1.1" xmlns="http://www.w3.org/2000/svg" xmlns:xlink="http://www.w3.org/1999/xlink" xml:space="preserve" xmlns:serif="http://www.serif.com/" style="fill-rule:evenodd;clip-rule:evenodd;stroke-linecap:round;stroke-linejoin:round;stroke-miterlimit:2;">
    <g transform="matrix(1,0,0,1,-5.00675e-05,-2.17863)">
        <g transform="matrix(4.16667,0,0,4.16667,0,0)">
            <path d="M19.52,3.571C19.52,3.048 19.346,2.632 18.999,2.323C18.652,2.013 18.136,1.859 17.451,1.859L14.625,1.859L14.625,5.27L17.494,5.27C18.141,5.27 18.64,5.117 18.992,4.813C19.344,4.508 19.52,4.096 19.52,3.571ZM13.483,10.849L13.483,0.86L17.551,0.86C18.255,0.86 18.835,0.979 19.292,1.217C19.748,1.454 20.088,1.766 20.312,2.151C20.536,2.537 20.647,2.962 20.647,3.429C20.647,3.885 20.564,4.268 20.398,4.577C20.231,4.887 20.008,5.132 19.727,5.312C19.446,5.493 19.139,5.617 18.806,5.683L18.806,5.783C19.206,5.84 19.563,5.966 19.877,6.162C20.191,6.357 20.438,6.621 20.619,6.954C20.8,7.287 20.89,7.691 20.89,8.167C20.89,8.661 20.766,9.113 20.519,9.522C20.272,9.931 19.908,10.255 19.427,10.493C18.947,10.731 18.359,10.849 17.665,10.849L13.483,10.849ZM14.625,9.85L17.579,9.85C18.264,9.85 18.799,9.696 19.185,9.387C19.57,9.078 19.763,8.633 19.763,8.052C19.763,7.472 19.56,7.03 19.156,6.725C18.752,6.421 18.212,6.269 17.536,6.269L14.625,6.269L14.625,9.85Z" style="fill:rgb(27,43,88);fill-rule:nonzero;"/>
        </g>
        <g transform="matrix(4.16667,0,0,4.16667,0,0)">
            <path d="M22.388,3.714L23.444,3.714L23.444,10.849L22.388,10.849L22.388,3.714ZM22.931,2.287C22.712,2.287 22.531,2.216 22.388,2.073C22.246,1.93 22.174,1.754 22.174,1.545C22.174,1.326 22.246,1.145 22.388,1.003C22.531,0.86 22.712,0.789 22.931,0.789C23.131,0.789 23.304,0.86 23.452,1.003C23.599,1.145 23.673,1.326 23.673,1.545C23.673,1.754 23.599,1.93 23.452,2.073C23.304,2.216 23.131,2.287 22.931,2.287Z" style="fill:rgb(27,43,88);fill-rule:nonzero;"/>
        </g>
        <g transform="matrix(4.16667,0,0,4.16667,0,0)">
            <path d="M28.325,10.949C27.65,10.949 27.045,10.802 26.513,10.507C25.98,10.212 25.561,9.791 25.257,9.244C24.952,8.697 24.8,8.048 24.8,7.296C24.8,6.535 24.955,5.878 25.264,5.327C25.573,4.775 25.997,4.351 26.534,4.057C27.072,3.762 27.678,3.614 28.354,3.614C29.029,3.614 29.636,3.762 30.173,4.057C30.711,4.351 31.134,4.772 31.443,5.319C31.752,5.867 31.907,6.516 31.907,7.267C31.907,8.029 31.75,8.685 31.436,9.237C31.122,9.789 30.694,10.212 30.152,10.507C29.609,10.802 29.001,10.949 28.325,10.949ZM28.311,9.936C28.729,9.936 29.124,9.843 29.495,9.658C29.866,9.472 30.168,9.182 30.402,8.787C30.635,8.392 30.751,7.891 30.751,7.282C30.751,6.663 30.637,6.159 30.409,5.769C30.18,5.379 29.883,5.091 29.517,4.906C29.15,4.72 28.758,4.627 28.339,4.627C27.921,4.627 27.531,4.72 27.169,4.906C26.808,5.091 26.515,5.381 26.292,5.776C26.068,6.171 25.956,6.673 25.956,7.282C25.956,7.9 26.066,8.404 26.284,8.794C26.503,9.185 26.791,9.472 27.148,9.658C27.505,9.843 27.892,9.936 28.311,9.936Z" style="fill:rgb(27,43,88);fill-rule:nonzero;"/>
        </g>
        <g transform="matrix(4.16667,0,0,4.16667,0,0)">
            <path d="M39.713,1.859L34.305,1.859L34.305,5.27L38.372,5.27L38.372,6.269L34.305,6.269L34.305,9.85L39.713,9.85L39.713,10.849L33.163,10.849L33.163,0.86L39.713,0.86L39.713,1.859Z" style="fill:rgb(27,43,88);fill-rule:nonzero;"/>
        </g>
        <g transform="matrix(4.16667,0,0,4.16667,0,0)">
            <path d="M44.166,10.949C43.471,10.949 42.862,10.797 42.339,10.493C41.816,10.188 41.409,9.762 41.119,9.216C40.829,8.668 40.684,8.033 40.684,7.31C40.684,6.578 40.829,5.933 41.119,5.377C41.409,4.82 41.816,4.387 42.339,4.078C42.862,3.769 43.471,3.614 44.166,3.614C44.898,3.614 45.54,3.783 46.092,4.121C46.644,4.458 47.044,4.927 47.291,5.526L46.306,5.869C46.164,5.488 45.904,5.186 45.529,4.963C45.153,4.739 44.717,4.627 44.223,4.627C43.738,4.627 43.317,4.737 42.96,4.956C42.603,5.174 42.327,5.484 42.132,5.883C41.937,6.283 41.84,6.754 41.84,7.296C41.84,8.095 42.054,8.736 42.482,9.216C42.91,9.696 43.481,9.936 44.194,9.936C44.679,9.936 45.112,9.827 45.493,9.608C45.873,9.389 46.154,9.094 46.335,8.723L47.305,9.066C47.048,9.655 46.644,10.117 46.092,10.45C45.54,10.783 44.898,10.949 44.166,10.949Z" style="fill:rgb(27,43,88);fill-rule:nonzero;"/>
        </g>
        <g transform="matrix(4.16667,0,0,4.16667,0,0)">
            <path d="M48.447,0.574L49.517,0.574L49.517,4.684C49.746,4.342 50.055,4.078 50.445,3.892C50.835,3.707 51.273,3.614 51.758,3.614C52.281,3.614 52.747,3.733 53.156,3.971C53.565,4.209 53.886,4.561 54.12,5.027C54.353,5.493 54.469,6.073 54.469,6.768L54.469,10.849L53.328,10.849L53.328,6.896C53.328,6.154 53.171,5.586 52.857,5.191C52.543,4.796 52.086,4.599 51.487,4.599C50.868,4.599 50.385,4.808 50.038,5.227C49.691,5.645 49.517,6.254 49.517,7.053L49.517,10.849L48.447,10.849L48.447,0.574Z" style="fill:rgb(27,43,88);fill-rule:nonzero;"/>
        </g>
        <g transform="matrix(4.16667,0,0,4.16667,0,0)">
            <path d="M59.007,10.949C58.332,10.949 57.728,10.802 57.195,10.507C56.662,10.212 56.244,9.791 55.939,9.244C55.635,8.697 55.482,8.048 55.482,7.296C55.482,6.535 55.637,5.878 55.946,5.327C56.255,4.775 56.679,4.351 57.216,4.057C57.754,3.762 58.36,3.614 59.036,3.614C59.711,3.614 60.318,3.762 60.855,4.057C61.393,4.351 61.816,4.772 62.125,5.319C62.435,5.867 62.589,6.516 62.589,7.267C62.589,8.029 62.432,8.685 62.118,9.237C61.804,9.789 61.376,10.212 60.834,10.507C60.292,10.802 59.683,10.949 59.007,10.949ZM58.993,9.936C59.412,9.936 59.806,9.843 60.178,9.658C60.549,9.472 60.851,9.182 61.084,8.787C61.317,8.392 61.433,7.891 61.433,7.282C61.433,6.663 61.319,6.159 61.091,5.769C60.863,5.379 60.565,5.091 60.199,4.906C59.833,4.72 59.44,4.627 59.022,4.627C58.603,4.627 58.213,4.72 57.851,4.906C57.49,5.091 57.197,5.381 56.974,5.776C56.75,6.171 56.638,6.673 56.638,7.282C56.638,7.9 56.748,8.404 56.967,8.794C57.185,9.185 57.473,9.472 57.83,9.658C58.187,9.843 58.574,9.936 58.993,9.936Z" style="fill:rgb(27,43,88);fill-rule:nonzero;"/>
        </g>
        <g transform="matrix(4.16667,0,0,4.16667,0,0)">
            <path d="M0.342,5.117C0.037,3.959 0.339,2.675 1.245,1.768C2.152,0.861 3.436,0.56 4.594,0.865" style="fill:none;stroke:rgb(27,43,88);stroke-width:0.45px;"/>
        </g>
        <g transform="matrix(4.16667,0,0,4.16667,0,0)">
            <path d="M4.594,0.865C5.169,1.016 5.713,1.317 6.164,1.768C7.522,3.126 7.522,5.33 6.164,6.687C4.807,8.045 2.603,8.045 1.245,6.687C0.794,6.236 0.493,5.692 0.342,5.117" style="fill:none;stroke:rgb(27,43,88);stroke-width:0.45px;"/>
        </g>
        <g transform="matrix(4.16667,0,0,4.16667,0,0)">
            <path d="M0.342,5.117C0.374,4.038 0.801,2.969 1.624,2.147C2.446,1.324 3.514,0.897 4.594,0.865" style="fill:none;stroke:rgb(27,43,88);stroke-width:0.45px;"/>
        </g>
        <g transform="matrix(4.16667,0,0,4.16667,0,0)">
            <path d="M4.594,0.865C5.385,0.841 6.182,1.03 6.89,1.432" style="fill:none;stroke:rgb(27,43,88);stroke-width:0.45px;"/>
        </g>
        <g transform="matrix(4.16667,0,0,4.16667,0,0)">
            <path d="M6.89,1.432C7.225,1.623 7.541,1.861 7.826,2.147C9.538,3.858 9.538,6.637 7.826,8.349C6.115,10.062 3.335,10.062 1.624,8.349C1.353,8.078 1.125,7.781 0.94,7.465" style="fill:none;stroke:rgb(27,43,88);stroke-width:0.45px;"/>
        </g>
        <g transform="matrix(4.16667,0,0,4.16667,0,0)">
            <path d="M0.94,7.465C0.517,6.744 0.318,5.928 0.342,5.117" style="fill:none;stroke:rgb(27,43,88);stroke-width:0.45px;"/>
        </g>
        <g transform="matrix(4.16667,0,0,4.16667,0,0)">
            <path d="M0.94,7.465C0.66,5.853 1.142,4.134 2.386,2.89C3.612,1.665 5.298,1.179 6.89,1.432" style="fill:none;stroke:rgb(27,43,88);stroke-width:0.45px;"/>
        </g>
        <g transform="matrix(4.16667,0,0,4.16667,0,0)">
            <path d="M6.89,1.432C7.935,1.599 8.94,2.085 9.745,2.89C11.776,4.921 11.776,8.219 9.745,10.25C7.715,12.281 4.417,12.281 2.386,10.25C1.599,9.463 1.117,8.486 0.94,7.465" style="fill:none;stroke:rgb(27,43,88);stroke-width:0.45px;"/>
        </g>
    </g>
</svg>
